<svg xmlns="http://www.w3.org/2000/svg" xmlns:svg="http://www.w3.org/2000/svg" id="svg1" width="99.645332" height="124.40874" viewBox="0 0 99.645332 124.40874"><defs id="defs1"><clipPath clipPathUnits="userSpaceOnUse" id="clipPath205"><path d="M 0,0 H 843 V 595 H 0 Z" id="path205"></path></clipPath></defs><g id="g172" transform="translate(-4821.36,-547.67732)"><g id="g206"><path d="m 224.328,468.844 c -0.984,-0.985 -1.961,-1.961 -2.898,-2.895 -0.883,0.883 -1.793,1.793 -2.719,2.715 0.957,0.949 1.937,1.922 2.918,2.891 0.93,-0.934 1.832,-1.836 2.699,-2.711 m -2.93,-10.559 c 0.133,-0.121 0.211,-0.191 0.286,-0.265 1.234,-1.231 2.472,-2.465 3.707,-3.7 2.789,-2.781 5.578,-5.558 8.359,-8.347 3.016,-3.024 4.711,-6.672 5.098,-10.922 0.218,-2.41 -0.086,-4.766 -0.856,-7.067 -2.133,-6.355 -7.965,-11.211 -15.066,-11.781 -2.383,-0.191 -4.715,0.063 -6.985,0.809 -8.105,2.676 -13.082,10.82 -11.757,19.281 0.582,3.727 2.222,6.941 4.89,9.621 4.028,4.039 8.071,8.063 12.106,12.098 0.074,0.074 0.132,0.164 0.218,0.273 m 37.356,23.629 c -0.035,0.258 -0.07,0.516 -0.113,0.774 -0.657,3.808 -3.692,6.832 -7.508,7.417 -3.086,0.477 -5.77,-0.39 -7.988,-2.585 -3.856,-3.825 -7.688,-7.672 -11.528,-11.508 -1.051,-1.047 -2.097,-2.094 -3.144,-3.141 -0.082,-0.082 -0.164,-0.164 -0.223,-0.219 -0.926,0.926 -1.836,1.832 -2.762,2.758 0.059,0.059 0.141,0.152 0.231,0.238 4.269,4.266 8.535,8.532 12.808,12.793 1.399,1.395 2.293,3.059 2.602,5.012 0.781,4.926 -2.34,9.129 -6.598,10.285 -4.937,1.344 -10.031,-1.582 -11.254,-6.547 -0.832,-3.386 0.055,-6.355 2.52,-8.839 0.023,-0.024 0.051,-0.04 0.043,-0.036 1.258,1.262 2.512,2.512 3.777,3.778 -0.062,0.07 -0.168,0.172 -0.265,0.285 -0.981,1.105 -1.27,2.379 -0.797,3.773 0.468,1.387 1.48,2.219 2.914,2.496 1.562,0.305 3.16,-0.476 3.949,-1.878 0.773,-1.383 0.586,-3.125 -0.469,-4.321 -0.094,-0.101 -0.191,-0.199 -0.289,-0.297 -4.254,-4.246 -8.508,-8.496 -12.762,-12.742 -0.074,-0.074 -0.132,-0.168 -0.207,-0.265 -0.105,0.085 -0.171,0.136 -0.23,0.191 -4.328,4.324 -8.668,8.637 -12.984,12.973 -1.102,1.105 -1.379,2.468 -0.844,3.925 0.527,1.446 1.617,2.266 3.156,2.446 1.539,0.183 3.07,-0.657 3.773,-2.102 0.7,-1.437 0.415,-3.133 -0.714,-4.285 -0.071,-0.074 -0.145,-0.152 -0.188,-0.199 1.262,-1.262 2.516,-2.512 3.797,-3.793 0.09,0.097 0.211,0.23 0.332,0.359 1.742,1.86 2.578,4.074 2.504,6.613 -0.125,4.274 -3.313,7.915 -7.539,8.653 -4.867,0.847 -9.547,-2.281 -10.524,-7.125 -0.64,-3.188 0.196,-6.008 2.5,-8.324 4.258,-4.289 8.547,-8.551 12.825,-12.821 0.086,-0.09 0.191,-0.16 0.257,-0.218 -1.011,-1.012 -1.988,-1.989 -2.988,-2.985 -0.047,0.047 -0.136,0.129 -0.222,0.215 -4.938,4.93 -9.875,9.859 -14.805,14.793 -1.266,1.266 -2.75,2.141 -4.5,2.539 -5.281,1.195 -10.09,-2.277 -11.024,-7.098 -0.089,-0.445 -0.128,-0.902 -0.191,-1.351 -0.012,-0.071 -0.039,-0.141 -0.062,-0.211 v -0.504 c 0.023,-0.059 0.054,-0.117 0.062,-0.176 0.051,-0.379 0.082,-0.758 0.148,-1.133 0.7,-4.039 4.079,-7.16 8.18,-7.496 2.84,-0.234 5.293,0.672 7.324,2.684 0.059,0.058 0.106,0.125 0.137,0.156 -1.266,1.266 -2.516,2.512 -3.777,3.77 -0.086,-0.086 -0.192,-0.188 -0.301,-0.286 -0.664,-0.613 -1.445,-0.957 -2.344,-1.003 -2.105,-0.114 -3.855,1.453 -3.988,3.55 -0.137,2.114 1.57,3.957 3.687,3.981 1.106,0.012 2.036,-0.395 2.821,-1.176 4.953,-4.953 9.91,-9.906 14.867,-14.855 0.074,-0.075 0.144,-0.153 0.234,-0.247 -0.097,-0.101 -0.183,-0.191 -0.269,-0.277 -4.09,-4.086 -8.18,-8.168 -12.266,-12.254 -0.09,-0.09 -0.18,-0.179 -0.273,-0.265 -0.653,-0.606 -1.414,-0.95 -2.305,-1.02 -2.523,-0.199 -4.551,2.129 -3.965,4.582 0.336,1.41 1.215,2.371 2.606,2.777 1.398,0.414 2.656,0.082 3.722,-0.925 0.082,-0.075 0.164,-0.149 0.211,-0.192 1.27,1.278 2.512,2.528 3.762,3.789 0.008,-0.004 -0.016,0.028 -0.047,0.059 -2.355,2.336 -5.187,3.246 -8.43,2.59 -5.382,-1.086 -8.531,-6.617 -6.804,-11.821 1.3,-3.929 5.254,-6.726 9.832,-6.152 2.062,0.262 3.832,1.149 5.308,2.621 4.149,4.145 8.297,8.289 12.446,12.434 0.086,0.086 0.175,0.168 0.222,0.211 0.93,-0.934 1.84,-1.84 2.762,-2.758 -0.039,-0.039 -0.102,-0.109 -0.168,-0.176 -1.269,-1.273 -2.543,-2.547 -3.812,-3.82 -2.774,-2.77 -5.555,-5.524 -8.313,-8.305 -4.055,-4.094 -6.25,-9.035 -6.633,-14.769 -0.152,-2.286 0.071,-4.543 0.61,-6.77 2.363,-9.766 10.957,-16.871 20.992,-17.352 0.101,-0.003 0.203,-0.035 0.304,-0.054 h 1.715 c 0.071,0.015 0.141,0.043 0.215,0.051 0.317,0.023 0.633,0.043 0.949,0.066 1.825,0.145 3.606,0.516 5.332,1.102 8.625,2.933 14.653,10.632 15.415,19.691 0.187,2.238 0.05,4.457 -0.422,6.656 -0.938,4.375 -2.973,8.164 -6.133,11.336 -4.035,4.047 -8.086,8.082 -12.129,12.121 -0.086,0.086 -0.172,0.176 -0.219,0.227 1.004,1 1.981,1.976 3,2.996 0.051,-0.066 0.11,-0.168 0.192,-0.25 4.207,-4.203 8.41,-8.418 12.628,-12.609 2.247,-2.227 4.969,-3.102 8.083,-2.583 4.863,0.817 8.371,5.477 7.386,10.719 -0.804,4.25 -4.441,7.172 -8.429,7.364 -2.743,0.132 -5.09,-0.77 -7.04,-2.7 -0.058,-0.058 -0.105,-0.125 -0.113,-0.133 1.27,-1.265 2.516,-2.511 3.774,-3.769 0.054,0.051 0.136,0.129 0.218,0.211 0.77,0.723 1.68,1.082 2.739,1.055 2.363,-0.055 4.121,-2.313 3.558,-4.61 -0.343,-1.418 -1.234,-2.375 -2.644,-2.769 -1.41,-0.395 -2.672,-0.059 -3.711,0.976 -4.246,4.227 -8.481,8.465 -12.719,12.696 -0.066,0.066 -0.125,0.136 -0.191,0.214 0.074,0.079 0.136,0.153 0.203,0.219 4.914,4.906 9.824,9.813 14.738,14.719 0.891,0.887 1.965,1.25 3.215,1.09 1.855,-0.239 3.473,-1.953 3.219,-4.141 -0.176,-1.527 -1.028,-2.609 -2.481,-3.129 -1.441,-0.515 -2.75,-0.203 -3.883,0.832 -0.093,0.082 -0.187,0.164 -0.254,0.227 -1.265,-1.262 -2.515,-2.512 -3.773,-3.77 0.051,-0.058 0.121,-0.136 0.195,-0.207 2.25,-2.168 4.93,-3.019 8.012,-2.523 3.77,0.605 6.797,3.637 7.43,7.387 0.047,0.269 0.078,0.539 0.117,0.808 z" style="fill:#08407c;fill-opacity:1;fill-rule:nonzero;stroke:none" transform="matrix(1.3333333,0,0,1.3333333,4576,0)" clip-path="url(#clipPath205)" id="path206"></path></g><text id="text244" xml:space="preserve" transform="matrix(1.3333333,0,0,1.3317518,4631.3327,452.02534)"><tspan id="tspan244" style="font-variant:normal;font-weight:normal;font-size:9.01069px;font-family:Inter;writing-mode:lr-tb;fill:#000000;fill-opacity:1;fill-rule:nonzero;stroke:none" x="0" dx="0 -0.43251303 0 0 0 0 0 -0.13516033 0 0 0 0 -0.1531817 -0.2252672 0 -0.12614962 -0.081096187 0 -0.13516033 325.76251 -0.43251303 0 0 0 0 0 -0.13516033 0 -0.23427789 0 0.19823514 -0.0720855 0 0 0 -0.13516033" y="0">Versión horizontal Versión vertical 1</tspan><tspan id="tspan245" style="font-variant:normal;font-weight:normal;font-size:9.01069px;font-family:Inter;writing-mode:lr-tb;fill:#000000;fill-opacity:1;fill-rule:nonzero;stroke:none" x="406.13876" dx="0 -0.43251303 0 0 0 0 0 -0.13516033 0 -0.23427789 0 0.19823514 -0.0720855 0 0 0 -0.13516033 0 -481.37979 0.14417101 0.11713894 0 0.090106882 0.17120308 0.1531817" y="188.67479">Versión vertical 2Isotipo</tspan></text></g></svg>