<?xml version="1.0" standalone="no"?>
<!DOCTYPE svg PUBLIC "-//W3C//DTD SVG 20010904//EN"
 "http://www.w3.org/TR/2001/REC-SVG-20010904/DTD/svg10.dtd">
<svg version="1.0" xmlns="http://www.w3.org/2000/svg"
 width="1000.000000pt" height="1000.000000pt" viewBox="0 0 1000.000000 1000.000000"
 preserveAspectRatio="xMidYMid meet">

<g transform="translate(0.000000,1000.000000) scale(0.100000,-0.100000)" fill="#08407c" stroke="none">
<path d="M2091 6689 c-248 -44 -473 -214 -589 -444 -62 -124 -77 -195 -77
-360 0 -169 12 -231 70 -352 56 -119 87 -157 347 -418 136 -138 248 -255 248
-261 0 -5 -20 -30 -45 -54 l-45 -44 -257 255 c-293 291 -298 294 -438 294 -91
-1 -146 -20 -209 -76 -52 -45 -84 -98 -102 -171 -20 -76 -14 -140 19 -212 35
-75 80 -121 155 -158 115 -57 243 -43 350 39 l34 26 -68 68 -68 68 -32 -19
c-64 -40 -168 -14 -192 48 -23 58 -23 72 -3 117 16 37 29 50 66 66 87 38 90
36 365 -237 l245 -244 -290 -289 c-324 -324 -323 -323 -408 -282 -58 28 -82
71 -74 137 4 39 12 55 41 81 30 27 44 33 82 33 29 0 59 -8 79 -20 l33 -20 65
67 c73 75 73 77 4 120 -55 34 -149 56 -212 48 -233 -29 -361 -279 -248 -486
32 -60 75 -99 146 -136 44 -23 65 -27 137 -28 140 0 148 5 486 343 l291 291
53 -54 54 -55 -249 -250 c-299 -298 -310 -314 -310 -445 0 -102 18 -153 76
-219 69 -79 179 -123 278 -112 261 31 384 323 225 531 l-27 36 -68 -67 -68
-68 21 -34 c16 -26 19 -44 15 -85 -4 -42 -10 -56 -41 -84 -30 -28 -43 -33 -83
-33 -60 0 -104 26 -126 73 -21 43 -21 68 -3 110 8 18 124 141 258 274 l243
243 247 -248 c275 -276 283 -289 253 -367 -21 -56 -65 -85 -130 -85 -42 0 -52
5 -86 39 -34 34 -39 44 -39 86 0 30 7 60 20 79 l19 32 -68 68 -68 68 -26 -34
c-55 -74 -71 -118 -71 -203 -1 -137 62 -238 182 -297 57 -28 76 -33 142 -33
129 1 238 68 296 182 25 51 29 68 29 143 -1 137 -7 146 -301 440 -139 141
-254 260 -254 266 0 5 20 30 45 54 l45 44 293 -291 c336 -336 340 -338 477
-338 65 1 96 6 132 22 66 30 133 95 165 162 24 48 28 68 28 141 0 73 -4 93
-28 140 -50 97 -115 150 -219 176 -99 26 -211 0 -291 -68 l-28 -23 69 -69 70
-68 30 22 c92 68 227 -22 206 -137 -9 -48 -60 -98 -108 -107 -68 -13 -103 14
-391 303 l-270 271 250 249 c280 279 283 281 368 243 59 -26 81 -66 74 -136
-4 -41 -10 -55 -41 -83 -30 -27 -44 -33 -82 -33 -29 0 -59 7 -78 20 l-32 19
-68 -68 -68 -68 34 -26 c136 -104 321 -94 437 22 162 162 114 431 -95 532 -68
32 -175 36 -249 9 -55 -21 -81 -43 -320 -281 l-261 -259 -53 54 -54 55 248
248 c302 303 344 360 401 550 23 75 27 107 27 218 1 138 -10 201 -57 317 -93
230 -293 408 -538 479 -84 24 -280 34 -367 18z m319 -205 c293 -86 486 -378
449 -676 -24 -196 -75 -271 -386 -581 l-239 -238 -249 253 c-266 269 -306 321
-346 448 -30 92 -36 228 -15 322 55 245 237 425 491 484 74 17 218 11 295 -12z
m-116 -1824 l47 -49 -42 -46 c-23 -25 -46 -45 -52 -45 -6 0 -33 21 -59 47
l-48 47 47 48 c26 26 50 48 53 48 4 0 28 -22 54 -50z"/>
<path d="M4017 5843 c-4 -3 -7 -318 -7 -700 l0 -693 150 0 150 0 0 198 0 198
66 79 c36 44 69 83 73 88 4 4 93 -121 197 -277 l189 -285 178 -1 178 0 -145
213 c-385 565 -380 556 -364 575 14 15 368 442 460 553 21 26 38 50 38 53 0 3
-78 6 -173 6 l-174 0 -164 -202 c-90 -110 -203 -250 -252 -310 -48 -59 -92
-108 -97 -108 -6 0 -10 116 -10 310 l0 310 -143 0 c-79 0 -147 -3 -150 -7z"/>
<path d="M5318 5844 c-5 -4 -8 -319 -8 -701 l0 -693 150 0 150 0 0 245 0 245
109 0 109 0 129 -242 130 -243 163 -3 c145 -2 162 -1 156 13 -3 9 -69 131
-145 270 l-139 254 52 29 c180 102 248 364 151 580 -31 69 -114 156 -183 191
-96 49 -137 54 -487 58 -181 3 -333 1 -337 -3z m654 -276 c61 -36 88 -91 88
-176 0 -158 -82 -212 -322 -212 l-128 0 0 211 0 211 158 -4 c150 -3 159 -4
204 -30z"/>
<path d="M6936 5842 c-11 -18 -476 -1369 -476 -1383 0 -6 62 -8 157 -7 l157 3
50 155 51 155 251 3 250 2 53 -160 52 -160 159 0 159 0 -90 263 c-50 144 -136
393 -191 552 -55 160 -123 356 -150 438 l-51 147 -188 0 c-103 0 -190 -4 -193
-8z m204 -335 c0 -6 36 -120 80 -253 44 -132 80 -244 80 -247 0 -4 -79 -7
-176 -7 -164 0 -176 1 -169 18 10 25 135 409 152 465 7 26 18 45 23 42 6 -4
10 -11 10 -18z"/>
<path d="M7930 5150 l0 -700 150 0 150 0 0 200 0 201 66 79 c36 44 69 80 74
80 4 0 91 -126 194 -280 l187 -280 174 0 c96 0 175 2 175 5 0 3 -115 174 -255
380 -140 206 -255 379 -255 384 0 6 24 38 53 73 100 118 443 534 451 546 5 9
-34 12 -168 12 l-176 0 -251 -307 c-138 -170 -255 -309 -260 -311 -5 -2 -10
127 -11 305 l-3 308 -147 3 -148 3 0 -701z"/>
<path d="M4810 3851 c0 -145 2 -171 15 -171 11 0 15 12 16 43 2 89 3 92 28 95
48 7 66 -6 99 -73 26 -53 36 -65 55 -65 l24 0 -35 68 -35 68 26 26 c15 15 27
35 28 45 3 50 -5 80 -27 103 -22 22 -34 25 -109 29 l-85 3 0 -171z m173 107
c13 -15 17 -31 13 -52 -9 -43 -33 -56 -96 -53 l-55 2 -3 54 c-5 81 -1 85 66
78 43 -5 62 -12 75 -29z"/>
<path d="M5160 3850 l0 -170 105 0 c87 0 105 3 105 15 0 15 -6 16 -135 19 -29
1 -30 2 -33 59 l-3 57 78 0 c72 0 79 2 79 20 0 18 -7 20 -79 20 l-78 0 3 58 3
57 79 2 c84 3 92 5 81 22 -4 7 -46 11 -106 11 l-99 0 0 -170z"/>
<path d="M5568 3948 c-14 -40 -42 -117 -62 -171 -34 -94 -35 -98 -15 -95 15 2
27 17 38 48 l17 45 70 3 70 3 15 -48 c12 -37 20 -49 38 -51 20 -3 23 0 17 15
-4 10 -33 87 -63 171 -49 133 -58 152 -77 152 -19 0 -27 -12 -48 -72z m77 -58
c10 -30 20 -61 23 -67 3 -10 -11 -13 -52 -13 -31 0 -56 2 -56 4 0 20 54 145
60 139 4 -4 16 -33 25 -63z"/>

</g>
<g transform="translate(0.000000,1000.000000) scale(0.100000,-0.100000)" fill="#08407c" stroke="none">
<path d="M5870 3850 l0 -170 101 0 c90 0 100 2 97 18 -3 14 -15 17 -78 17
l-75 0 -3 153 c-2 144 -4 152 -22 152 -19 0 -20 -7 -20 -170z"/>
<path d="M6380 3850 l0 -170 105 0 c85 0 105 3 105 15 0 11 -18 15 -82 17
l-83 3 -3 58 -3 57 76 0 c68 0 75 2 75 20 0 18 -7 20 -75 20 l-76 0 3 58 3 57
70 3 c80 3 99 8 90 22 -3 6 -50 10 -106 10 l-99 0 0 -170z"/>
<path d="M6765 4008 c-32 -17 -45 -39 -45 -79 0 -46 28 -71 105 -94 59 -17 85
-37 85 -65 0 -26 -47 -60 -84 -60 -36 0 -76 24 -76 46 0 8 -9 14 -20 14 -23 0
-26 -26 -7 -51 21 -27 57 -41 108 -41 64 1 106 29 115 78 10 55 -17 84 -105
113 -55 17 -75 29 -84 48 -10 22 -8 28 16 49 37 32 81 31 113 -1 38 -38 64
-33 48 10 -15 38 -121 60 -169 33z"/>
<path d="M7062 4003 c3 -14 14 -18 53 -18 33 0 50 -4 51 -12 1 -7 2 -76 3
-153 1 -116 4 -140 16 -140 12 0 15 26 17 153 l3 152 35 1 c65 2 70 4 70 19 0
13 -21 15 -126 15 -114 0 -125 -2 -122 -17z"/>
<path d="M7485 4008 c-2 -7 -29 -80 -60 -162 -30 -82 -55 -153 -55 -158 0 -4
9 -8 19 -8 14 0 24 13 36 50 l17 50 68 0 68 0 17 -50 c12 -37 22 -50 36 -50
10 0 19 4 19 8 0 4 -26 80 -59 167 -48 132 -62 161 -80 163 -12 2 -23 -3 -26
-10z m53 -112 c12 -36 22 -70 22 -75 0 -6 -21 -11 -50 -11 -27 0 -50 3 -50 7
0 15 44 143 50 143 3 0 15 -29 28 -64z"/>
<path d="M7710 4005 c0 -16 2 -17 65 -19 l40 -1 3 -152 c2 -127 5 -153 17
-153 12 0 15 22 16 120 2 201 -1 185 39 186 63 2 70 4 70 19 0 13 -21 15 -125
15 -104 0 -125 -2 -125 -15z"/>
<path d="M8085 3852 l1 -167 102 -3 c86 -2 102 0 102 13 0 17 0 17 -94 19
l-69 1 -4 58 -3 57 80 0 c73 0 80 2 80 20 0 18 -7 20 -80 20 l-81 0 3 58 3 57
65 2 c99 2 100 2 100 18 0 12 -18 15 -102 15 l-103 0 0 -168z"/>
</g>
</svg>
